<svg viewBox="0 0 48 48" xmlns="http://www.w3.org/2000/svg" xmlns:xlink="http://www.w3.org/1999/xlink"><defs><path d="M39.85 42.959c1.75 0 3.15-1.419 3.15-3.17V8.16C43 6.409 41.6 5 39.85 5H8.183c-1.75 0-3.169 1.024-3.169 2.773V39.79a3.169 3.169 0 003.17 3.169H39.85z" id="a"/></defs><g fill="none" fill-rule="evenodd"><mask id="b" fill="#fff"><use xlink:href="#a"/></mask><use fill="#F0F0F0" xlink:href="#a"/><path d="M5 25.186v14.646A3.17 3.17 0 008.169 43h9.27L5 25.186z" fill="#A0C3FF" mask="url(#b)"/><path fill="#E6E6E6" mask="url(#b)" d="M19.377 43L5 22.956v2.23L17.44 43z"/><path d="M42.987 16.875V14.5h-4.749V5.041h-2.363V14.5l-22.234.067-6.794-9.306c-.822.292-1.454.87-1.715 1.686l24.163 33.7-1.7 2.353h2.939l6.56-8.708h5.892v-2.375h-4.749V16.875h4.75zm-7.112 15.042l-5.113 6.698-15.47-21.74h20.583v15.042z" fill="#D4D4D4" mask="url(#b)"/><path d="M23.517 21.495c3.15 0 9.483 1.583 9.483 4.82v4.68h-4.75l-4.75 6.333-4.75-6.333H14v-4.68c0-3.237 6.333-4.82 9.517-4.82zM23.5 9.62a4.75 4.75 0 110 9.5 4.75 4.75 0 010-9.5z" fill="#4285F4" mask="url(#b)"/></g></svg>