<svg viewBox="0 0 48 48" xmlns="http://www.w3.org/2000/svg"><g fill="none" fill-rule="evenodd"><path d="M30.05 11.5a6.25 6.25 0 10-11.979 2.502h-1.343a7.5 7.5 0 1114.145 0h-1.344a6.229 6.229 0 00.521-2.502z" fill="#9AA0A6"/><path d="M42.645 29l.948 12.308A2.5 2.5 0 0141.101 44H6.5a2.5 2.5 0 01-2.493-2.692L4.953 29l18.73-10 18.962 10z" fill="#F5F5F5"/><path d="M38.985 11.5a2.5 2.5 0 012.493 2.308L42.645 29H4.953l1.17-15.192A2.5 2.5 0 018.615 11.5h30.37z" fill="#EAEAEA"/><g fill-rule="nonzero"><path d="M30.941 28.568a9.13 9.13 0 00-.135-1.567h-7.123v2.943h4.088a3.504 3.504 0 01-1.511 2.299v1.881h2.426c1.428-1.316 2.255-3.253 2.255-5.556z" fill="#4285F4"/><path d="M23.687 35.954c2.04 0 3.75-.677 5-1.83l-2.427-1.881c-.68.457-1.551.728-2.577.728-1.973 0-3.647-1.333-4.248-3.126h-2.502v1.94c1.25 2.47 3.799 4.169 6.754 4.169z" fill="#34A853"/><path d="M19.439 29.845a4.51 4.51 0 010-2.896v-1.94h-2.502a7.507 7.507 0 00.004 6.776l2.498-1.94z" fill="#FBBC05"/><path d="M23.687 23.823c1.117 0 2.116.386 2.903 1.133l2.152-2.147c-1.309-1.221-3.015-1.969-5.055-1.969a7.543 7.543 0 00-6.746 4.168l2.502 1.941c.597-1.794 2.27-3.126 4.244-3.126z" fill="#EA4335"/></g></g></svg>