<svg viewBox="0 0 48 48" xmlns="http://www.w3.org/2000/svg"><g fill="none" fill-rule="evenodd"><path d="M28.186 12.136l6.027-8.022c.3-.4.215-.994-.211-1.298l.069.05a1.117 1.117 0 00-1.422.132l-8.56 9.01a44.954 44.954 0 00-.177 0l-8.56-9.01a1.117 1.117 0 00-1.423-.133l.07-.049a.923.923 0 00-.212 1.298l6.019 8.011c-6.895.337-15.307 1.278-15.307 1.278C3.671 13.49 3 14.24 3 15.06v26.793c0 .828.66 1.573 1.488 1.666 0 0 12.668 1.487 19.512 1.487 6.596 0 19.517-1.49 19.517-1.49.82-.091 1.483-.843 1.483-1.663V15.061c0-.827-.678-1.569-1.499-1.653 0 0-8.633-.925-15.315-1.272z" fill="#4D4D4D"/><rect fill="#FFF" x="6" y="15.007" width="36" height="27" rx=".5"/><path d="M38.78 18.227l-7.5 3-3-3-7.5 3-3-3-8.56 5.56 3 3-3 4.5 3 3-3 4.5 3.22 3.22h28.808a.755.755 0 00.752-.75v-19.81l-3.22-3.22z" fill-opacity=".05" fill="#000" fill-rule="nonzero"/><path d="M30.737 25.507a.732.732 0 00-.737.736v4.528c0 .407.342.736.737.736h7.526a.732.732 0 00.737-.736v-4.528a.744.744 0 00-.737-.736h-7.526zm-21 7.5a.732.732 0 00-.737.736v4.528c0 .407.342.736.737.736h7.526a.732.732 0 00.737-.736v-4.528a.744.744 0 00-.737-.736H9.737z" fill="#EA4335"/><path d="M30.737 18.007a.732.732 0 00-.737.736v4.528c0 .407.342.736.737.736h7.526a.732.732 0 00.737-.736v-4.528a.744.744 0 00-.737-.736h-7.526zm-10.5 7.5a.732.732 0 00-.737.736v4.528c0 .407.342.736.737.736h7.526a.732.732 0 00.737-.736v-4.528a.744.744 0 00-.737-.736h-7.526z" fill="#4285F4"/><path d="M20.237 18.007a.732.732 0 00-.737.736v4.528c0 .407.342.736.737.736h7.526a.732.732 0 00.737-.736v-4.528a.744.744 0 00-.737-.736h-7.526zm-10.5 7.5a.732.732 0 00-.737.736v4.528c0 .407.342.736.737.736h7.526a.732.732 0 00.737-.736v-4.528a.744.744 0 00-.737-.736H9.737zm21 7.5a.732.732 0 00-.737.736v4.528c0 .407.342.736.737.736h7.526a.732.732 0 00.737-.736v-4.528a.744.744 0 00-.737-.736h-7.526z" fill="#34A853"/><path d="M9.737 18.007a.732.732 0 00-.737.736v4.528c0 .407.342.736.737.736h7.526a.732.732 0 00.737-.736v-4.528a.744.744 0 00-.737-.736H9.737zm10.5 15a.732.732 0 00-.737.736v4.528c0 .407.342.736.737.736h7.526a.732.732 0 00.737-.736v-4.528a.744.744 0 00-.737-.736h-7.526z" fill="#FBBC05"/></g></svg>