<svg viewBox="0 0 48 48" xmlns="http://www.w3.org/2000/svg"><g fill="none" fill-rule="evenodd"><path fill="#FFF" d="M8 8h32v32H8z"/><path fill="#34A853" d="M28 26l-4.5 5.5L20 28l-8 8h24z"/><path d="M23 18c0 2.75-2.25 5-5 5s-5-2.25-5-5c0-2.725 2.25-5 5-5s5 2.25 5 5" fill="#FBBC04"/><path d="M24 5v4H10a1 1 0 00-1 1v28a1 1 0 001 1h14v4H9a4 4 0 01-4-4V9a4 4 0 014-4h15z" fill="#EA4335"/><path d="M24 5h15a4 4 0 014 4v30a4 4 0 01-4 4H24v-4h13.5a1.5 1.5 0 001.5-1.5v-27A1.5 1.5 0 0037.5 9H24V5z" fill="#4285F4"/></g></svg>