<svg viewBox="0 0 48 48" xmlns="http://www.w3.org/2000/svg"><g fill="none"><path d="M39 43.992H9a3 3 0 01-3-3v-34a3 3 0 013-3h30a3 3 0 013 3v34a3 3 0 01-3 3z" fill="#E0E0E0"/><path fill="#4FC3F7" d="M10 8h14l14 14v14H10z"/><path d="M18.685 13.655a10.058 10.058 0 00-3.667 3.668 9.945 9.945 0 00-1.338 4.994c0 5.523 4.478 10 10 10 1.82 0 3.525-.487 4.995-1.337a10.058 10.058 0 003.668-3.668L18.684 13.655z" fill="#42A5F5"/><path d="M22.352 9.99a10.058 10.058 0 00-3.667 3.667 9.945 9.945 0 00-1.337 4.995c0 5.523 4.477 10 10 10 1.82 0 3.525-.487 4.995-1.337a10.058 10.058 0 003.667-3.668L22.353 9.99z" fill="#448AFF"/><path d="M23.863 8a10.038 10.038 0 00-1.51 1.99 9.945 9.945 0 00-1.338 4.995c0 5.523 4.477 10 10 10A9.955 9.955 0 0038 22.138V8H23.863z" fill="#2962FF"/><path d="M31.015 19.785a4.804 4.804 0 01-4.8-4.8c0-2.647 2.152-4.8 4.8-4.8 2.648 0 4.8 2.152 4.8 4.8 0 2.648-2.152 4.8-4.8 4.8zm0-7.6a2.802 2.802 0 00-2.8 2.8c0 1.545 1.255 2.8 2.8 2.8s2.8-1.255 2.8-2.8-1.255-2.8-2.8-2.8z" fill="#F5F5F5"/></g></svg>