<svg viewBox="0 0 48 48" xmlns="http://www.w3.org/2000/svg"><defs><radialGradient cx="14.726%" cy="13.554%" fx="14.726%" fy="13.554%" r="102.124%" id="a"><stop stop-color="#EBEBEB" offset="0%"/><stop stop-color="#E0E0E0" offset="100%"/></radialGradient></defs><g fill="none" fill-rule="evenodd"><path d="M2 24c0 12.154 9.848 22 21.998 22S46 36.154 46 24c0-12.149-9.851-22-22.002-22C11.848 2 2 11.851 2 24z" fill="url(#a)"/><path fill="#FFF" d="M28.424 30.14l2.81-8.648-7.356-5.343-7.354 5.343 2.808 8.647z"/><path d="M36.295 11.007c4.765 4.6 6.776 11.677 4.593 18.4-.082.246-.166.491-.256.733l-8.41.004a1.566 1.566 0 01-1.483-2.068l5.556-17.069z" fill="#FBBC05"/><path d="M15.473 8.097c5.847-3.11 13.2-2.835 18.918 1.319.21.153.417.31.618.47l-2.595 8a1.565 1.565 0 01-2.424.771L15.473 8.097z" fill="#EA4335"/><path d="M6.271 27.001c-1.15-6.521 1.383-13.429 7.1-17.583.21-.154.423-.302.638-.443l6.806 4.94a1.563 1.563 0 01-.017 2.544L6.271 27z" fill="#914196"/><path d="M21.407 41.595C14.85 40.675 9.063 36.131 6.88 29.41a16.466 16.466 0 01-.225-.743l6.801-4.946a1.565 1.565 0 012.415.801l5.537 17.074z" fill="#4285F4"/><path d="M39.964 31.709c-2.903 5.951-9.012 10.053-16.08 10.053-.261 0-.519-.005-.777-.016l-2.601-7.997a1.564 1.564 0 011.004-1.973 1.59 1.59 0 01.504-.067h17.95z" fill="#34A853"/></g></svg>