<svg viewBox="0 0 32 32" xmlns="http://www.w3.org/2000/svg"><g fill="none" fill-rule="evenodd"><path d="M19.63 8.5a3.75 3.75 0 10-7.187 1.501h-.806a4.5 4.5 0 118.487 0h-.806c.2-.46.312-.967.312-1.501z" fill="#9AA0A6"/><path d="M27.187 19l.569 7.385A1.5 1.5 0 0126.26 28H5.5a1.5 1.5 0 01-1.496-1.615L4.572 19l11.238-6 11.377 6z" fill="#F5F5F5"/><path d="M24.991 8.5a1.5 1.5 0 011.496 1.385l.7 9.115H4.572l.702-9.115A1.5 1.5 0 016.769 8.5h18.222z" fill="#EAEAEA"/><g fill-rule="nonzero"><path d="M20.165 18.937c0-.327-.029-.64-.081-.94H15.81v1.765h2.453a2.102 2.102 0 01-.907 1.38v1.128h1.456c.856-.79 1.353-1.952 1.353-3.333z" fill="#4285F4"/><path d="M15.812 23.368c1.224 0 2.25-.405 3-1.098l-1.456-1.128c-.408.274-.93.436-1.546.436-1.184 0-2.189-.799-2.549-1.875H11.76v1.164a4.538 4.538 0 004.052 2.501z" fill="#34A853"/><path d="M13.263 19.703a2.706 2.706 0 010-1.738v-1.164h-1.5a4.504 4.504 0 00.002 4.066l1.498-1.164z" fill="#FBBC05"/><path d="M15.812 16.09c.67 0 1.27.231 1.742.68l1.291-1.289a4.35 4.35 0 00-3.033-1.181 4.526 4.526 0 00-4.047 2.5l1.5 1.165c.359-1.076 1.363-1.875 2.547-1.875z" fill="#EA4335"/></g></g></svg>