<svg viewBox="0 0 32 32" xmlns="http://www.w3.org/2000/svg"><g fill="none" fill-rule="evenodd"><path fill="#FFF" d="M6 6h20v20H6z"/><path d="M16 4l3 1-3 2H8a1 1 0 00-1 1v16a1 1 0 001 1h8l3 2-3 1H7a3 3 0 01-3-3V7a3 3 0 013-3h9z" fill="#EA4335"/><path d="M28 7v18a3 3 0 01-3 3h-9v-3h8a1 1 0 001-1V8a1 1 0 00-1-1h-8V4h9a3 3 0 013 3z" fill="#4285F4"/><path d="M15 12c0 1.65-1.35 3-3 3s-3-1.35-3-3c0-1.635 1.35-3 3-3s3 1.35 3 3" fill="#FBBC04"/><path fill="#34A853" d="M18.333 17.17l-2.625 3.208-2.041-2.041L9 23.003h14z"/></g></svg>