<svg viewBox="0 0 32 32" xmlns="http://www.w3.org/2000/svg"><g fill="none"><path d="M25.167 29H6.833C5.82 29 5 28.127 5 27.05V4.95C5 3.873 5.82 3 6.833 3h18.334C26.18 3 27 3.873 27 4.95v22.1c0 1.076-.82 1.95-1.833 1.95z" fill="#E0E0E0"/><path fill="#4FC3F7" d="M8 6h8.556L24 14v9H8z"/><path d="M12.199 9.456a6.147 6.147 0 00-2.242 2.241 6.111 6.111 0 0010.587 6.105L12.2 9.456z" fill="#42A5F5"/><path d="M14.44 7.216a6.147 6.147 0 00-2.241 2.241 6.111 6.111 0 0010.587 6.105L14.44 7.216z" fill="#448AFF"/><path d="M15.363 6a6.078 6.078 0 00-1.74 4.269 6.111 6.111 0 0010.38 4.37V6h-8.64z" fill="#2962FF"/><path d="M19.734 13.202a2.936 2.936 0 01-2.934-2.933 2.936 2.936 0 012.934-2.934 2.936 2.936 0 012.933 2.934 2.936 2.936 0 01-2.933 2.933zm0-4.645a1.712 1.712 0 000 3.423 1.712 1.712 0 000-3.423z" fill="#F5F5F5"/></g></svg>